<svg viewBox="0 0 64 64" xmlns="http://www.w3.org/2000/svg" role="img" aria-label="Baccarat Dragon">
  <circle cx="32" cy="32" r="31" fill="#0c1016" />
  <circle cx="32" cy="32" r="30" fill="none" stroke="#e6c66e" stroke-width="3" />
  <g fill="#e6c66e" transform="translate(6 8) scale(0.82)">
    <path d="M25 15 L15 2 L21 6 L19 0 L27 12 Z" />
    <path d="M31 14 L31 1 L37 11 Z" />
    <path d="M24 14 C 32 11 38 12 43 17 C 48 20 54 21 60 20 C 62 20 62 23 60 24 C 56 25 52 25 48 24 L 53 29 C 48 30 43 29 40 26 C 41 31 45 34 50 34 C 46 38 39 38 35 33 C 37 39 34 45 29 47 C 31 41 28 38 23 39 C 17 40 13 45 11 51 C 9 42 11 33 16 26 C 12 26 9 28 7 32 C 9 23 15 17 24 14 Z" />
    <path d="M14 27 L5 25 L16 23 Z" />
    <path d="M11 37 L3 38 L14 33 Z" />
    <path d="M60 22 C 64 24 64 29 60 32 C 61 28 59 26 56 26 Z" />
  </g>
  <circle cx="32" cy="25" r="2" fill="#0c1016" />
</svg>
